<svg width="18" height="22" viewBox="0 0 18 22" fill="none" xmlns="http://www.w3.org/2000/svg">
<path d="M2.13332 2.17949H1.76871C1.8707 2.10985 1.99578 2.06836 2.13332 2.06836H12.3929C12.5304 2.06836 12.6555 2.10985 12.7575 2.17949H12.3929H2.13332ZM1.5 2.67949C1.5 2.54039 1.54924 2.40943 1.63332 2.30469V2.67949L1.63332 15.2402L1.63332 15.615C1.54924 15.5102 1.5 15.3793 1.5 15.2402V2.67949ZM2.13332 15.8513C1.99578 15.8513 1.8707 15.8098 1.76871 15.7402H2.13332H3.84048V15.8513H2.13332ZM13.0262 2.67949V5.17434H12.8929V2.67949V2.30469C12.977 2.40943 13.0262 2.54039 13.0262 2.67949ZM5.9738 7.8966C5.9738 7.56836 6.24798 7.28547 6.60713 7.28547H16.8667C17.2258 7.28547 17.5 7.56836 17.5 7.8966V20.4573C17.5 20.7855 17.2258 21.0684 16.8667 21.0684H6.60712C6.24798 21.0684 5.9738 20.7855 5.9738 20.4573V7.8966Z" stroke="url(#paint0_linear_167_2571)"/>
<defs>
<linearGradient id="paint0_linear_167_2571" x1="13.0476" y1="2.89169" x2="0.745907" y2="8.04992" gradientUnits="userSpaceOnUse">
<stop stop-color="#FF2957"/>
<stop offset="1" stop-color="#FF7357"/>
</linearGradient>
</defs>
</svg>
