<svg width="22" height="25" viewBox="0 0 22 25" fill="none" xmlns="http://www.w3.org/2000/svg">
<path d="M2.35959 1.73336H1.92206C2.04445 1.6498 2.19455 1.60001 2.35959 1.60001H14.6711C14.8361 1.60001 14.9862 1.6498 15.1086 1.73336H14.6711H2.35959ZM1.59961 2.33336C1.59961 2.16644 1.6587 2.00929 1.7596 1.8836V2.33336L1.7596 17.4062L1.75959 17.8559C1.6587 17.7302 1.59961 17.5731 1.59961 17.4062V2.33336ZM2.35959 18.1395C2.19454 18.1395 2.04445 18.0897 1.92206 18.0062H2.35959H4.40819V18.1395H2.35959ZM15.4311 2.33336V5.32718H15.2711V2.33336V1.88361C15.372 2.00929 15.4311 2.16644 15.4311 2.33336ZM6.96817 8.59389C6.96817 8.20001 7.29719 7.86054 7.72817 7.86054H20.0397C20.4706 7.86054 20.7996 8.20001 20.7996 8.59389V23.6667C20.7996 24.0605 20.4706 24.4 20.0397 24.4H7.72815C7.29719 24.4 6.96817 24.0605 6.96817 23.6667V8.59389Z" stroke="#FEFEFE"/>
</svg>
