<svg width="24" height="24" viewBox="0 0 24 24" fill="none" xmlns="http://www.w3.org/2000/svg">
<path d="M11.9999 13.5302C11.5599 13.5302 11.1199 13.4402 10.7699 13.2702L7.03992 11.4002C6.25992 11.0102 5.70992 10.3302 5.53992 9.55015C5.36992 8.76015 5.57991 7.92015 6.12991 7.24015L9.85992 2.58015C10.4099 1.89015 11.1899 1.50015 11.9999 1.50015C12.8099 1.50015 13.5899 1.89015 14.1399 2.58015L17.8699 7.25015C18.4199 7.93015 18.6299 8.77015 18.4599 9.56015C18.2899 10.3502 17.7399 11.0202 16.9599 11.4102L13.2299 13.2802C12.8799 13.4502 12.4399 13.5302 11.9999 13.5302ZM11.0299 3.52015L7.29992 8.18015C7.03992 8.51015 6.92992 8.88015 7.00992 9.23015C7.08992 9.58015 7.33992 9.87015 7.71992 10.0602L11.4499 11.9302C11.7299 12.0702 12.2799 12.0702 12.5599 11.9302L16.2899 10.0602C16.6699 9.87015 16.9199 9.57015 16.9999 9.23015C17.0799 8.89015 16.9699 8.51015 16.7099 8.18015L12.9799 3.52015C12.4299 2.85015 11.5699 2.85015 11.0299 3.52015Z" fill="#FEFEFE"/>
<path d="M12 8.31016C11.59 8.31016 11.25 7.97016 11.25 7.56016V2.30016C11.25 1.89016 11.59 1.55016 12 1.55016C12.41 1.55016 12.75 1.89016 12.75 2.30016V7.56016C12.75 7.97016 12.41 8.31016 12 8.31016Z" fill="#FEFEFE"/>
<path d="M16.2001 11.4602C16.0401 11.4602 15.8901 11.4102 15.7501 11.3102L12.0001 8.49015L8.25008 11.3102C7.92008 11.5602 7.45008 11.4901 7.20008 11.1602C6.95008 10.8302 7.02008 10.3601 7.35008 10.1101L11.5501 6.96015C11.8201 6.76015 12.1801 6.76015 12.4501 6.96015L16.6501 10.1101C16.9801 10.3601 17.0501 10.8302 16.8001 11.1602C16.6601 11.3601 16.4301 11.4602 16.2001 11.4602Z" fill="#FEFEFE"/>
<path d="M12.0002 22.5002C11.2002 22.5002 10.4202 22.1202 9.87016 21.4402L6.41016 17.2102C5.74016 16.3902 5.72015 15.2702 6.36015 14.4202C7.00015 13.5702 8.09015 13.3002 9.06015 13.7302L10.6702 14.4502C11.5102 14.8202 12.4702 14.8202 13.3102 14.4502L14.9202 13.7302C15.8902 13.3002 16.9802 13.5802 17.6202 14.4202C18.2702 15.2702 18.2502 16.3902 17.5702 17.2102L14.1102 21.4402C13.5802 22.1202 12.8002 22.5002 12.0002 22.5002ZM8.14015 15.0402C7.83015 15.0402 7.63015 15.2602 7.56015 15.3402C7.48015 15.4502 7.23016 15.8402 7.58016 16.2702L11.0402 20.5002C11.5702 21.1502 12.4402 21.1502 12.9702 20.5002L16.4302 16.2702C16.7802 15.8402 16.5302 15.4502 16.4502 15.3402C16.3702 15.2302 16.0502 14.8902 15.5502 15.1102L13.9402 15.8302C12.7102 16.3702 11.3102 16.3702 10.0802 15.8302L8.47015 15.1102C8.34015 15.0602 8.23015 15.0402 8.14015 15.0402Z" fill="#FEFEFE"/>
</svg>
