<svg width="36" height="36" viewBox="0 0 36 36" fill="none" xmlns="http://www.w3.org/2000/svg">
<g opacity="0.5">
<path d="M22.5 34.125H13.5C5.355 34.125 1.875 30.645 1.875 22.5V13.5C1.875 5.355 5.355 1.875 13.5 1.875H22.5C30.645 1.875 34.125 5.355 34.125 13.5V22.5C34.125 30.645 30.645 34.125 22.5 34.125ZM13.5 4.125C6.585 4.125 4.125 6.585 4.125 13.5V22.5C4.125 29.415 6.585 31.875 13.5 31.875H22.5C29.415 31.875 31.875 29.415 31.875 22.5V13.5C31.875 6.585 29.415 4.125 22.5 4.125H13.5Z" fill="white"/>
<path d="M13.5 16.125C11.22 16.125 9.375 14.28 9.375 12C9.375 9.72 11.22 7.875 13.5 7.875C15.78 7.875 17.625 9.72 17.625 12C17.625 14.28 15.78 16.125 13.5 16.125ZM13.5 10.125C12.465 10.125 11.625 10.965 11.625 12C11.625 13.035 12.465 13.875 13.5 13.875C14.535 13.875 15.375 13.035 15.375 12C15.375 10.965 14.535 10.125 13.5 10.125Z" fill="white"/>
<path d="M4.0049 29.5501C3.6449 29.5501 3.2849 29.3701 3.0749 29.0551C2.7299 28.5451 2.8649 27.8401 3.3899 27.4951L10.7849 22.5301C12.4049 21.4351 14.6399 21.5701 16.1099 22.8151L16.6049 23.2501C17.3549 23.8951 18.6299 23.8951 19.3649 23.2501L25.6049 17.8951C27.1949 16.5301 29.6999 16.5301 31.3049 17.8951L33.7499 19.9951C34.2149 20.4001 34.2749 21.1051 33.8699 21.5851C33.4649 22.0501 32.7599 22.1101 32.2799 21.7051L29.8349 19.6051C29.0849 18.9601 27.8099 18.9601 27.0599 19.6051L20.8199 24.9601C19.2299 26.3251 16.7249 26.3251 15.1199 24.9601L14.6249 24.5251C13.9349 23.9401 12.7949 23.8801 12.0299 24.4051L4.6349 29.3701C4.4399 29.4901 4.2149 29.5501 4.0049 29.5501Z" fill="white"/>
</g>
</svg>
