<svg width="45" height="36" viewBox="0 0 45 36" fill="none" xmlns="http://www.w3.org/2000/svg">
<path d="M29.5 34H17.5C6.64 34 2 30.547 2 22.4651V13.5349C2 5.45302 6.64 2 17.5 2H29.5C40.36 2 45 5.45302 45 13.5349V22.4651C45 30.547 40.36 34 29.5 34ZM17.5 4.23256C8.28 4.23256 5 6.67349 5 13.5349V22.4651C5 29.3265 8.28 31.7674 17.5 31.7674H29.5C38.72 31.7674 42 29.3265 42 22.4651V13.5349C42 6.67349 38.72 4.23256 29.5 4.23256H17.5Z" fill="white"/>
<path d="M13.5 16.125C11.22 16.125 9.375 14.28 9.375 12C9.375 9.72 11.22 7.875 13.5 7.875C15.78 7.875 17.625 9.72 17.625 12C17.625 14.28 15.78 16.125 13.5 16.125ZM13.5 10.125C12.465 10.125 11.625 10.965 11.625 12C11.625 13.035 12.465 13.875 13.5 13.875C14.535 13.875 15.375 13.035 15.375 12C15.375 10.965 14.535 10.125 13.5 10.125Z" fill="white"/>
<path d="M5.4697 30C4.99746 30 4.52521 29.8154 4.24974 29.4925C3.79717 28.9695 3.97426 28.2467 4.66295 27.8929L14.3636 22.8021C16.4887 21.6794 19.4205 21.8178 21.3489 23.0944L21.9982 23.5404C22.982 24.2017 24.6546 24.2017 25.6187 23.5404L33.8043 18.0497C35.89 16.6501 39.176 16.6501 41.2814 18.0497L44.4888 20.2029C45.0987 20.6182 45.1774 21.341 44.6462 21.8332C44.1149 22.31 43.1901 22.3715 42.5604 21.9562L39.3531 19.803C38.3693 19.1417 36.6968 19.1417 35.7129 19.803L27.5274 25.2937C25.4416 26.6933 22.1556 26.6933 20.0502 25.2937L19.4009 24.8477C18.4957 24.2479 17.0003 24.1863 15.9968 24.7246L6.29612 29.8154C6.04033 29.9385 5.74517 30 5.4697 30Z" fill="white"/>
</svg>
