<svg width="36" height="43" viewBox="0 0 36 43" fill="none" xmlns="http://www.w3.org/2000/svg">
<path d="M23.7442 43H14.2558C5.66884 43 2 38.5758 2 28.2209V16.7791C2 6.42419 5.66884 2 14.2558 2H23.7442C32.3312 2 36 6.42419 36 16.7791V28.2209C36 38.5758 32.3312 43 23.7442 43ZM14.2558 4.86047C6.96558 4.86047 4.37209 7.98791 4.37209 16.7791V28.2209C4.37209 37.0121 6.96558 40.1395 14.2558 40.1395H23.7442C31.0344 40.1395 33.6279 37.0121 33.6279 28.2209V16.7791C33.6279 7.98791 31.0344 4.86047 23.7442 4.86047H14.2558Z" fill="white"/>
<path d="M13.5 16.125C11.22 16.125 9.375 14.28 9.375 12C9.375 9.72 11.22 7.875 13.5 7.875C15.78 7.875 17.625 9.72 17.625 12C17.625 14.28 15.78 16.125 13.5 16.125ZM13.5 10.125C12.465 10.125 11.625 10.965 11.625 12C11.625 13.035 12.465 13.875 13.5 13.875C14.535 13.875 15.375 13.035 15.375 12C15.375 10.965 14.535 10.125 13.5 10.125Z" fill="white"/>
<path d="M5.11525 37.555C4.75525 37.555 4.39525 37.375 4.18525 37.06C3.84025 36.55 3.97525 35.845 4.50025 35.5L10.7853 31.5298C12.4053 30.4348 14.6403 30.5698 16.1103 31.8148L16.6053 32.2498C17.3553 32.8948 18.6303 32.8948 19.3653 32.2498L25.6053 26.8948C27.1953 25.5298 29.7003 25.5298 31.3053 26.8948L34.9702 30.79C35.4352 31.195 35.4952 31.9 35.0902 32.38C34.6852 32.845 33.9802 32.905 33.5002 32.5L29.8353 28.6048C29.0853 27.9598 27.8103 27.9598 27.0603 28.6048L20.8203 33.9598C19.2303 35.3248 16.7253 35.3248 15.1203 33.9598L14.6253 33.5248C13.9353 32.9398 12.7953 32.8798 12.0303 33.4048L5.74525 37.375C5.55025 37.495 5.32525 37.555 5.11525 37.555Z" fill="white"/>
</svg>
