<svg width="16" height="16" viewBox="0 0 16 16" fill="none" xmlns="http://www.w3.org/2000/svg">
<path d="M7.61785 8.93075C7.54731 9.14231 7.51205 9.38924 7.51205 9.67137H8.57007C8.57007 9.39706 8.61318 9.1776 8.69939 9.01306C8.79343 8.8406 9.00114 8.64075 9.32247 8.41347C9.92594 7.97458 10.3452 7.57881 10.5803 7.22613C10.8233 6.86561 10.9448 6.43065 10.9448 5.92122C10.9448 5.50585 10.8389 5.12575 10.6274 4.7809C10.4236 4.43607 10.1101 4.16176 9.68692 3.958C9.26363 3.75423 8.74249 3.65234 8.12335 3.65234C7.55123 3.65234 7.03398 3.77382 6.57158 4.01677C6.10918 4.25189 5.74474 4.59281 5.47828 5.03953C5.21965 5.48625 5.09033 6.01136 5.09033 6.61482C5.09033 6.74806 5.09425 6.84994 5.10209 6.92048H6.17187C6.16404 6.84994 6.16012 6.74414 6.16012 6.60306C6.16012 5.99176 6.32862 5.51369 6.66562 5.16885C7.01047 4.81617 7.49637 4.63984 8.12335 4.63984C8.65629 4.63984 9.08345 4.76131 9.40479 5.00426C9.72603 5.24722 9.88674 5.55288 9.88674 5.92122C9.88674 6.26607 9.80443 6.57563 9.6399 6.84994C9.4831 7.12425 9.22843 7.37896 8.87573 7.61408C8.49954 7.86487 8.21348 8.09607 8.01755 8.30767C7.82162 8.51144 7.68839 8.71913 7.61785 8.93075Z" fill="white" fill-opacity="0.5"/>
<path d="M7.38184 12.0005H8.71024V10.625H7.38184V12.0005Z" fill="white" fill-opacity="0.5"/>
<path fill-rule="evenodd" clip-rule="evenodd" d="M7.99984 0.667969C3.94965 0.667969 0.666504 3.95112 0.666504 8.0013C0.666504 12.0515 3.94965 15.3346 7.99984 15.3346C12.0501 15.3346 15.3332 12.0515 15.3332 8.0013C15.3332 3.95112 12.0501 0.667969 7.99984 0.667969ZM1.99984 8.0013C1.99984 4.68749 4.68602 2.0013 7.99984 2.0013C11.3136 2.0013 13.9998 4.68749 13.9998 8.0013C13.9998 11.3151 11.3136 14.0013 7.99984 14.0013C4.68602 14.0013 1.99984 11.3151 1.99984 8.0013Z" fill="white" fill-opacity="0.5"/>
</svg>
