<svg width="19" height="18" viewBox="0 0 19 18" fill="none" xmlns="http://www.w3.org/2000/svg">
<path d="M9.07002 10.0486C8.99066 10.2866 8.95099 10.5644 8.95099 10.8818H10.1413C10.1413 10.5732 10.1898 10.3263 10.2868 10.1412C10.3926 9.94714 10.6262 9.72231 10.9877 9.46662C11.6666 8.97287 12.1383 8.52762 12.4028 8.13086C12.6761 7.72528 12.8128 7.23594 12.8128 6.66284C12.8128 6.19555 12.6937 5.76793 12.4557 5.37998C12.2265 4.99204 11.8738 4.68344 11.3977 4.45421C10.9215 4.22497 10.3352 4.11035 9.63871 4.11035C8.99507 4.11035 8.41316 4.24701 7.89296 4.52033C7.37276 4.78484 6.96277 5.16838 6.663 5.67094C6.37204 6.1735 6.22656 6.76424 6.22656 7.44314C6.22656 7.59303 6.23097 7.70765 6.23979 7.787H7.44329C7.43448 7.70765 7.43007 7.58862 7.43007 7.42991C7.43007 6.74219 7.61963 6.20436 7.99876 5.81642C8.38671 5.41966 8.93335 5.22128 9.63871 5.22128C10.2383 5.22128 10.7188 5.35794 11.0803 5.63126C11.4417 5.90459 11.6225 6.24845 11.6225 6.66284C11.6225 7.05079 11.5299 7.39905 11.3448 7.70765C11.1684 8.01624 10.8819 8.30279 10.4851 8.5673C10.0619 8.84944 9.7401 9.10954 9.51968 9.34759C9.29926 9.57683 9.14937 9.81048 9.07002 10.0486Z" fill="white"/>
<path d="M8.80469 13.4995H10.2991V11.9521H8.80469V13.4995Z" fill="white"/>
<path fill-rule="evenodd" clip-rule="evenodd" d="M9.5 0.75C4.94354 0.75 1.25 4.44354 1.25 9C1.25 13.5565 4.94354 17.25 9.5 17.25C14.0565 17.25 17.75 13.5565 17.75 9C17.75 4.44354 14.0565 0.75 9.5 0.75ZM2.75 9C2.75 5.27196 5.77196 2.25 9.5 2.25C13.228 2.25 16.25 5.27196 16.25 9C16.25 12.728 13.228 15.75 9.5 15.75C5.77196 15.75 2.75 12.728 2.75 9Z" fill="white"/>
</svg>
