<svg width="88" height="88" viewBox="0 0 88 88" fill="none" xmlns="http://www.w3.org/2000/svg">
<path d="M43.9997 45.1875C38.9805 45.1875 34.8955 41.1025 34.8955 36.0833C34.8955 31.0642 38.9805 26.9792 43.9997 26.9792C49.0188 26.9792 53.1038 31.0642 53.1038 36.0833C53.1038 41.1025 49.0188 45.1875 43.9997 45.1875ZM43.9997 29.3542C40.2947 29.3542 37.2705 32.3783 37.2705 36.0833C37.2705 39.7883 40.2947 42.8125 43.9997 42.8125C47.7047 42.8125 50.7288 39.7883 50.7288 36.0833C50.7288 32.3783 47.7047 29.3542 43.9997 29.3542Z" fill="#4D4D4D"/>
<path d="M57.6011 61.0208C56.9519 61.0208 56.4136 60.4825 56.4136 59.8333C56.4136 54.3708 50.8402 49.9375 44.0002 49.9375C37.1602 49.9375 31.5869 54.3708 31.5869 59.8333C31.5869 60.4825 31.0486 61.0208 30.3994 61.0208C29.7502 61.0208 29.2119 60.4825 29.2119 59.8333C29.2119 53.0725 35.8461 47.5625 44.0002 47.5625C52.1544 47.5625 58.7886 53.0725 58.7886 59.8333C58.7886 60.4825 58.2502 61.0208 57.6011 61.0208Z" fill="#4D4D4D"/>
<circle cx="44" cy="44" r="43.5" stroke="#4D4D4D"/>
</svg>
