<svg width="17" height="16" viewBox="0 0 17 16" fill="none" xmlns="http://www.w3.org/2000/svg">
<path d="M0.960183 9.26759C0.882685 9.26537 0.815341 9.21046 0.803993 9.13377C0.692697 8.38162 0.692942 7.61717 0.804718 6.8651C0.816104 6.7885 0.883347 6.73366 0.960755 6.73137C1.76223 6.70769 2.46867 6.30311 2.75228 5.61875C3.0359 4.93367 2.82274 4.14882 2.27208 3.56551C2.21888 3.50917 2.21008 3.42278 2.25622 3.36054C2.70927 2.74933 3.25003 2.20831 3.86104 1.75499C3.9233 1.70882 4.00972 1.71761 4.06608 1.77082C4.64946 2.32145 5.43495 2.53458 6.11928 2.25098C6.80434 1.96738 7.20894 1.26102 7.232 0.459614C7.23424 0.382134 7.28911 0.314801 7.36579 0.303428C8.11811 0.191826 8.88279 0.191826 9.63512 0.303428C9.71179 0.314802 9.76667 0.382134 9.7689 0.459612C9.792 1.26166 10.1973 1.96737 10.8816 2.25098C11.5667 2.53459 12.3516 2.32143 12.9349 1.77078C12.9912 1.71758 13.0776 1.70877 13.1398 1.75491C13.7511 2.20793 14.2921 2.74871 14.7453 3.35974C14.7916 3.42199 14.7828 3.50841 14.7296 3.56478C14.1789 4.14815 13.9657 4.93369 14.2493 5.61875C14.5329 6.30381 15.2387 6.70841 16.0407 6.73082C16.1181 6.73299 16.1856 6.78787 16.1969 6.86461C16.3085 7.61714 16.3085 8.38205 16.1969 9.13459C16.1856 9.21126 16.1183 9.26614 16.0408 9.26837C15.2387 9.29139 14.5329 9.69597 14.2493 10.3803C13.9657 11.0654 14.1789 11.8509 14.7296 12.4343C14.7828 12.4907 14.7916 12.5771 14.7455 12.6393C14.2924 13.2503 13.7516 13.791 13.1406 14.2441C13.0784 14.2903 12.992 14.2815 12.9356 14.2283C12.3522 13.6777 11.5667 13.4645 10.8816 13.7481C10.1966 14.0317 9.79198 14.7381 9.76955 15.5401C9.76739 15.6177 9.71248 15.685 9.63574 15.6965C8.88316 15.8078 8.11824 15.8077 7.36572 15.6957C7.28908 15.6843 7.23424 15.617 7.232 15.5395C7.20888 14.7381 6.80366 14.0317 6.12006 13.7481C5.43499 13.4645 4.64944 13.6777 4.06607 14.2282C4.00971 14.2814 3.9233 14.2903 3.86106 14.2441C3.25012 13.791 2.70936 13.2503 2.25627 12.6393C2.2101 12.5771 2.21891 12.4907 2.27211 12.4343C2.82275 11.8509 3.0359 11.0654 2.75228 10.3811C2.46868 9.69602 1.76229 9.29071 0.960183 9.26759ZM8.50084 10.3329C9.11968 10.3329 9.71318 10.087 10.1507 9.64945C10.5883 9.21187 10.8342 8.61838 10.8342 7.99954C10.8342 7.3807 10.5883 6.78721 10.1507 6.34962C9.71318 5.91203 9.11968 5.66621 8.50084 5.66621C7.882 5.66621 7.28851 5.91203 6.85092 6.34962C6.41334 6.78721 6.16751 7.3807 6.16751 7.99954C6.16751 8.61838 6.41334 9.21187 6.85092 9.64945C7.28851 10.087 7.882 10.3329 8.50084 10.3329Z" fill="url(#paint0_linear_167_2538)"/>
<defs>
<linearGradient id="paint0_linear_167_2538" x1="11.9507" y1="0.893997" x2="0.67863" y2="6.50666" gradientUnits="userSpaceOnUse">
<stop stop-color="#FF2957"/>
<stop offset="1" stop-color="#FF7357"/>
</linearGradient>
</defs>
</svg>
