<svg width="41" height="40" viewBox="0 0 41 40" fill="none" xmlns="http://www.w3.org/2000/svg">
<rect x="0.5" width="40" height="40" rx="10" fill="url(#paint0_linear_229_2946)"/>
<path fill-rule="evenodd" clip-rule="evenodd" d="M16.7246 14.558C16.4806 14.8021 16.4806 15.1978 16.7246 15.4419C16.9687 15.686 17.3645 15.686 17.6085 15.4419L19.8749 13.1755V23.3333C19.8749 23.6785 20.1547 23.9583 20.4999 23.9583C20.8451 23.9583 21.1249 23.6785 21.1249 23.3333V13.1755L23.3913 15.4419C23.6354 15.686 24.0311 15.686 24.2752 15.4419C24.5193 15.1978 24.5193 14.8021 24.2752 14.558L20.9418 11.2247C20.8246 11.1075 20.6656 11.0416 20.4999 11.0416C20.3341 11.0416 20.1752 11.1075 20.0579 11.2247L16.7246 14.558ZM15.7831 17.8909C15.999 17.6216 15.9557 17.2282 15.6864 17.0123C15.417 16.7964 15.0237 16.8397 14.8078 17.1091C13.8072 18.3573 13.2083 19.9429 13.2083 21.6666C13.2083 25.6937 16.4728 28.9583 20.4999 28.9583C24.527 28.9583 27.7916 25.6937 27.7916 21.6666C27.7916 19.9429 27.1927 18.3573 26.1921 17.1091C25.9762 16.8397 25.5828 16.7964 25.3135 17.0123C25.0442 17.2282 25.0008 17.6216 25.2167 17.8909C26.046 18.9254 26.5416 20.2373 26.5416 21.6666C26.5416 25.0034 23.8366 27.7083 20.4999 27.7083C17.1632 27.7083 14.4583 25.0034 14.4583 21.6666C14.4583 20.2373 14.9539 18.9254 15.7831 17.8909Z" fill="white"/>
<defs>
<linearGradient id="paint0_linear_229_2946" x1="29.3689" y1="1.73333" x2="0.391956" y2="16.1619" gradientUnits="userSpaceOnUse">
<stop stop-color="#FF2957"/>
<stop offset="1" stop-color="#FF7357"/>
</linearGradient>
</defs>
</svg>
